%TF.GenerationSoftware,KiCad,Pcbnew,7.0.9*%
%TF.CreationDate,2024-02-17T11:22:31-05:00*%
%TF.ProjectId,uSD Card with Power Switch - for Xiao or QT Py,75534420-4361-4726-9420-776974682050,V1*%
%TF.SameCoordinates,Original*%
%TF.FileFunction,Legend,Top*%
%TF.FilePolarity,Positive*%
%FSLAX46Y46*%
G04 Gerber Fmt 4.6, Leading zero omitted, Abs format (unit mm)*
G04 Created by KiCad (PCBNEW 7.0.9) date 2024-02-17 11:22:31*
%MOMM*%
%LPD*%
G01*
G04 APERTURE LIST*
%ADD10C,0.200000*%
%ADD11C,0.120000*%
G04 APERTURE END LIST*
D10*
X158966666Y-84952219D02*
X158966666Y-85666504D01*
X158966666Y-85666504D02*
X158919047Y-85809361D01*
X158919047Y-85809361D02*
X158823809Y-85904600D01*
X158823809Y-85904600D02*
X158680952Y-85952219D01*
X158680952Y-85952219D02*
X158585714Y-85952219D01*
X159347619Y-84952219D02*
X159966666Y-84952219D01*
X159966666Y-84952219D02*
X159633333Y-85333171D01*
X159633333Y-85333171D02*
X159776190Y-85333171D01*
X159776190Y-85333171D02*
X159871428Y-85380790D01*
X159871428Y-85380790D02*
X159919047Y-85428409D01*
X159919047Y-85428409D02*
X159966666Y-85523647D01*
X159966666Y-85523647D02*
X159966666Y-85761742D01*
X159966666Y-85761742D02*
X159919047Y-85856980D01*
X159919047Y-85856980D02*
X159871428Y-85904600D01*
X159871428Y-85904600D02*
X159776190Y-85952219D01*
X159776190Y-85952219D02*
X159490476Y-85952219D01*
X159490476Y-85952219D02*
X159395238Y-85904600D01*
X159395238Y-85904600D02*
X159347619Y-85856980D01*
D11*
%TO.C,J2*%
X149970000Y-72650000D02*
X149970000Y-87950000D01*
X149970000Y-72650000D02*
X152630000Y-72650000D01*
X149970000Y-87950000D02*
X152630000Y-87950000D01*
X151300000Y-70050000D02*
X152630000Y-70050000D01*
X152630000Y-70050000D02*
X152630000Y-71380000D01*
X152630000Y-72650000D02*
X152630000Y-87950000D01*
%TO.C,C1*%
X162465000Y-71511252D02*
X162465000Y-70988748D01*
X163935000Y-71511252D02*
X163935000Y-70988748D01*
%TO.C,C3*%
X157865000Y-71511252D02*
X157865000Y-70988748D01*
X159335000Y-71511252D02*
X159335000Y-70988748D01*
%TO.C,Q1*%
X153190000Y-73537500D02*
X153190000Y-75212500D01*
X153190000Y-73537500D02*
X153190000Y-72887500D01*
X156310000Y-73537500D02*
X156310000Y-74187500D01*
X156310000Y-73537500D02*
X156310000Y-72887500D01*
%TO.C,J3*%
X164970000Y-86750000D02*
X164970000Y-82300000D01*
X164970000Y-80900000D02*
X164970000Y-78600000D01*
X164970000Y-77200000D02*
X164970000Y-76480000D01*
X164970000Y-76480000D02*
X162290000Y-76480000D01*
X163490000Y-88120000D02*
X162630000Y-88120000D01*
X159990000Y-76480000D02*
X156320000Y-76480000D01*
X154020000Y-76480000D02*
X152790000Y-76480000D01*
X152790000Y-76480000D02*
X152790000Y-86300000D01*
%TO.C,R1*%
X159014564Y-75235000D02*
X158560436Y-75235000D01*
X159014564Y-73765000D02*
X158560436Y-73765000D01*
%TO.C,C2*%
X162188748Y-73465000D02*
X162711252Y-73465000D01*
X162188748Y-74935000D02*
X162711252Y-74935000D01*
%TO.C,R2*%
X155139564Y-71135000D02*
X154685436Y-71135000D01*
X155139564Y-69665000D02*
X154685436Y-69665000D01*
%TO.C,J1*%
X165210000Y-72650000D02*
X165210000Y-87950000D01*
X165210000Y-72650000D02*
X167870000Y-72650000D01*
X165210000Y-87950000D02*
X167870000Y-87950000D01*
X166540000Y-70050000D02*
X167870000Y-70050000D01*
X167870000Y-70050000D02*
X167870000Y-71380000D01*
X167870000Y-72650000D02*
X167870000Y-87950000D01*
%TO.C,C4*%
X160165000Y-71511252D02*
X160165000Y-70988748D01*
X161635000Y-71511252D02*
X161635000Y-70988748D01*
%TD*%
M02*
