%TF.GenerationSoftware,KiCad,Pcbnew,7.0.9*%
%TF.CreationDate,2024-02-17T11:22:31-05:00*%
%TF.ProjectId,uSD Card with Power Switch - for Xiao or QT Py,75534420-4361-4726-9420-776974682050,V1*%
%TF.SameCoordinates,Original*%
%TF.FileFunction,Copper,L2,Bot*%
%TF.FilePolarity,Positive*%
%FSLAX46Y46*%
G04 Gerber Fmt 4.6, Leading zero omitted, Abs format (unit mm)*
G04 Created by KiCad (PCBNEW 7.0.9) date 2024-02-17 11:22:31*
%MOMM*%
%LPD*%
G01*
G04 APERTURE LIST*
G04 Aperture macros list*
%AMFreePoly0*
4,1,19,0.500000,-0.750000,0.000000,-0.750000,0.000000,-0.744911,-0.071157,-0.744911,-0.207708,-0.704816,-0.327430,-0.627875,-0.420627,-0.520320,-0.479746,-0.390866,-0.500000,-0.250000,-0.500000,0.250000,-0.479746,0.390866,-0.420627,0.520320,-0.327430,0.627875,-0.207708,0.704816,-0.071157,0.744911,0.000000,0.744911,0.000000,0.750000,0.500000,0.750000,0.500000,-0.750000,0.500000,-0.750000,
$1*%
%AMFreePoly1*
4,1,19,0.000000,0.744911,0.071157,0.744911,0.207708,0.704816,0.327430,0.627875,0.420627,0.520320,0.479746,0.390866,0.500000,0.250000,0.500000,-0.250000,0.479746,-0.390866,0.420627,-0.520320,0.327430,-0.627875,0.207708,-0.704816,0.071157,-0.744911,0.000000,-0.744911,0.000000,-0.750000,-0.500000,-0.750000,-0.500000,0.750000,0.000000,0.750000,0.000000,0.744911,0.000000,0.744911,
$1*%
%AMFreePoly2*
4,1,6,1.000000,0.000000,0.500000,-0.750000,-0.500000,-0.750000,-0.500000,0.750000,0.500000,0.750000,1.000000,0.000000,1.000000,0.000000,$1*%
%AMFreePoly3*
4,1,6,0.500000,-0.750000,-0.650000,-0.750000,-0.150000,0.000000,-0.650000,0.750000,0.500000,0.750000,0.500000,-0.750000,0.500000,-0.750000,$1*%
G04 Aperture macros list end*
%TA.AperFunction,ComponentPad*%
%ADD10R,1.700000X1.700000*%
%TD*%
%TA.AperFunction,ComponentPad*%
%ADD11O,1.700000X1.700000*%
%TD*%
%TA.AperFunction,SMDPad,CuDef*%
%ADD12FreePoly0,90.000000*%
%TD*%
%TA.AperFunction,SMDPad,CuDef*%
%ADD13FreePoly1,90.000000*%
%TD*%
%TA.AperFunction,SMDPad,CuDef*%
%ADD14FreePoly2,90.000000*%
%TD*%
%TA.AperFunction,SMDPad,CuDef*%
%ADD15FreePoly3,90.000000*%
%TD*%
%TA.AperFunction,ViaPad*%
%ADD16C,0.800000*%
%TD*%
%TA.AperFunction,ViaPad*%
%ADD17C,0.900000*%
%TD*%
%TA.AperFunction,Conductor*%
%ADD18C,0.300000*%
%TD*%
G04 APERTURE END LIST*
%TA.AperFunction,EtchedComponent*%
%TO.C,JP1*%
G36*
X156200000Y-82050000D02*
G01*
X155600000Y-82050000D01*
X155600000Y-81550000D01*
X156200000Y-81550000D01*
X156200000Y-82050000D01*
G37*
%TD.AperFunction*%
%TD*%
D10*
%TO.P,J2,1,Pin_1*%
%TO.N,unconnected-(J2-Pin_1-Pad1)*%
X151300000Y-71380000D03*
D11*
%TO.P,J2,2,Pin_2*%
%TO.N,PWR_ENABLE_N*%
X151300000Y-73920000D03*
%TO.P,J2,3,Pin_3*%
%TO.N,Net-(J2-Pin_3)*%
X151300000Y-76460000D03*
%TO.P,J2,4,Pin_4*%
%TO.N,Net-(J2-Pin_4)*%
X151300000Y-79000000D03*
%TO.P,J2,5,Pin_5*%
%TO.N,unconnected-(J2-Pin_5-Pad5)*%
X151300000Y-81540000D03*
%TO.P,J2,6,Pin_6*%
%TO.N,unconnected-(J2-Pin_6-Pad6)*%
X151300000Y-84080000D03*
%TO.P,J2,7,Pin_7*%
%TO.N,unconnected-(J2-Pin_7-Pad7)*%
X151300000Y-86620000D03*
%TD*%
D10*
%TO.P,J1,1,Pin_1*%
%TO.N,+5V*%
X166540000Y-71380000D03*
D11*
%TO.P,J1,2,Pin_2*%
%TO.N,GND*%
X166540000Y-73920000D03*
%TO.P,J1,3,Pin_3*%
%TO.N,+3.3V*%
X166540000Y-76460000D03*
%TO.P,J1,4,Pin_4*%
%TO.N,MOSI*%
X166540000Y-79000000D03*
%TO.P,J1,5,Pin_5*%
%TO.N,MISO*%
X166540000Y-81540000D03*
%TO.P,J1,6,Pin_6*%
%TO.N,SCLK*%
X166540000Y-84080000D03*
%TO.P,J1,7,Pin_7*%
%TO.N,unconnected-(J1-Pin_7-Pad7)*%
X166540000Y-86620000D03*
%TD*%
D12*
%TO.P,JP1,1,A*%
%TO.N,CS_N*%
X155900000Y-82450000D03*
D13*
%TO.P,JP1,2,B*%
%TO.N,Net-(J2-Pin_4)*%
X155900000Y-81150000D03*
%TD*%
D14*
%TO.P,JP2,1,A*%
%TO.N,CS_N*%
X158600000Y-82525000D03*
D15*
%TO.P,JP2,2,B*%
%TO.N,Net-(J2-Pin_3)*%
X158600000Y-81075000D03*
%TD*%
D16*
%TO.N,GND*%
X167000000Y-88200000D03*
D17*
X153300000Y-76100000D03*
X157200000Y-71200000D03*
X156420525Y-86279475D03*
X153200000Y-83700000D03*
X163100000Y-77800000D03*
D16*
X152700000Y-69800000D03*
D17*
X161000000Y-81600000D03*
X161700000Y-78500000D03*
X164500000Y-76200000D03*
X162300000Y-86300000D03*
X156500000Y-78600000D03*
X163000000Y-79500000D03*
X164700000Y-71400000D03*
X153100000Y-85500000D03*
D16*
X150800000Y-88200000D03*
D17*
X164700000Y-70100000D03*
X155000000Y-78600000D03*
X154800000Y-84500000D03*
D16*
X165900000Y-88200000D03*
X151900000Y-88200000D03*
D17*
X163300000Y-76200000D03*
X153600000Y-82200000D03*
X164200000Y-86000000D03*
%TO.N,MISO*%
X163200000Y-84000000D03*
X158800000Y-84000000D03*
%TO.N,SCLK*%
X162300000Y-85000000D03*
X157900000Y-85000000D03*
%TO.N,CS_N*%
X160900000Y-86300000D03*
X159000000Y-79400000D03*
%TD*%
D18*
%TO.N,MISO*%
X158800000Y-84000000D02*
X163200000Y-84000000D01*
%TO.N,SCLK*%
X157900000Y-85000000D02*
X162300000Y-85000000D01*
%TO.N,Net-(J2-Pin_3)*%
X154840000Y-80000000D02*
X151300000Y-76460000D01*
X158600000Y-81075000D02*
X158375000Y-81075000D01*
X157300000Y-80000000D02*
X154840000Y-80000000D01*
X158375000Y-81075000D02*
X157300000Y-80000000D01*
%TO.N,Net-(J2-Pin_4)*%
X155900000Y-81150000D02*
X155850000Y-81100000D01*
X153400000Y-81100000D02*
X151300000Y-79000000D01*
X155850000Y-81100000D02*
X153400000Y-81100000D01*
%TO.N,CS_N*%
X160000000Y-80400000D02*
X160000000Y-82200000D01*
X159000000Y-79400000D02*
X160000000Y-80400000D01*
X155900000Y-82450000D02*
X158525000Y-82450000D01*
X160000000Y-82200000D02*
X159675000Y-82525000D01*
X158525000Y-82450000D02*
X158600000Y-82525000D01*
X158825000Y-82300000D02*
X158600000Y-82525000D01*
X157800000Y-86300000D02*
X155900000Y-84400000D01*
X160900000Y-86300000D02*
X157800000Y-86300000D01*
X159675000Y-82525000D02*
X158600000Y-82525000D01*
X155900000Y-84400000D02*
X155900000Y-82450000D01*
%TD*%
%TA.AperFunction,Conductor*%
%TO.N,GND*%
G36*
X167002667Y-69250763D02*
G01*
X167040013Y-69254440D01*
X167135545Y-69263849D01*
X167156486Y-69268015D01*
X167276552Y-69304436D01*
X167296280Y-69312608D01*
X167406932Y-69371753D01*
X167424696Y-69383622D01*
X167521679Y-69463213D01*
X167536788Y-69478322D01*
X167616376Y-69575302D01*
X167628246Y-69593067D01*
X167687388Y-69703712D01*
X167695565Y-69723454D01*
X167731982Y-69843504D01*
X167736151Y-69864461D01*
X167749237Y-69997332D01*
X167749500Y-70002677D01*
X167749500Y-70140992D01*
X167728683Y-70205061D01*
X167674183Y-70244657D01*
X167606817Y-70244657D01*
X167592628Y-70238917D01*
X167491392Y-70189426D01*
X167423262Y-70179500D01*
X167423260Y-70179500D01*
X165656740Y-70179500D01*
X165656738Y-70179500D01*
X165588609Y-70189426D01*
X165588607Y-70189426D01*
X165483518Y-70240801D01*
X165400801Y-70323518D01*
X165349426Y-70428607D01*
X165349426Y-70428609D01*
X165339500Y-70496737D01*
X165339500Y-72263262D01*
X165349426Y-72331390D01*
X165349426Y-72331392D01*
X165400801Y-72436481D01*
X165400802Y-72436483D01*
X165483517Y-72519198D01*
X165588607Y-72570573D01*
X165656737Y-72580499D01*
X165656738Y-72580500D01*
X166092673Y-72580500D01*
X166156742Y-72601317D01*
X166196338Y-72655817D01*
X166196338Y-72723183D01*
X166156742Y-72777683D01*
X166132048Y-72791139D01*
X166002826Y-72841200D01*
X165813742Y-72958275D01*
X165813738Y-72958278D01*
X165649388Y-73108103D01*
X165515366Y-73285575D01*
X165416239Y-73484652D01*
X165416237Y-73484656D01*
X165355379Y-73698555D01*
X165355378Y-73698556D01*
X165348758Y-73769999D01*
X165348759Y-73770000D01*
X166062935Y-73770000D01*
X166040000Y-73848111D01*
X166040000Y-73991889D01*
X166062935Y-74070000D01*
X165348759Y-74070000D01*
X165355378Y-74141443D01*
X165355379Y-74141444D01*
X165416237Y-74355343D01*
X165416239Y-74355347D01*
X165515366Y-74554424D01*
X165649388Y-74731896D01*
X165813738Y-74881721D01*
X165813742Y-74881724D01*
X166002826Y-74998799D01*
X166210188Y-75079132D01*
X166210201Y-75079136D01*
X166228740Y-75082602D01*
X166287892Y-75114837D01*
X166316800Y-75175685D01*
X166304422Y-75241904D01*
X166255485Y-75288200D01*
X166228741Y-75296889D01*
X166227382Y-75297144D01*
X166210061Y-75300381D01*
X166210050Y-75300385D01*
X166002607Y-75380749D01*
X166002595Y-75380755D01*
X165813440Y-75497874D01*
X165813436Y-75497877D01*
X165649017Y-75647765D01*
X165514945Y-75825306D01*
X165514943Y-75825309D01*
X165514942Y-75825311D01*
X165464954Y-75925698D01*
X165415770Y-76024473D01*
X165354885Y-76238463D01*
X165354884Y-76238464D01*
X165334357Y-76459999D01*
X165334357Y-76460000D01*
X165354884Y-76681535D01*
X165354885Y-76681536D01*
X165415771Y-76895528D01*
X165514942Y-77094689D01*
X165649019Y-77272236D01*
X165813438Y-77422124D01*
X166002599Y-77539247D01*
X166210060Y-77619618D01*
X166227382Y-77622856D01*
X166286535Y-77655091D01*
X166315442Y-77715939D01*
X166303064Y-77782158D01*
X166254127Y-77828454D01*
X166227382Y-77837144D01*
X166210063Y-77840381D01*
X166210050Y-77840385D01*
X166002607Y-77920749D01*
X166002595Y-77920755D01*
X165813440Y-78037874D01*
X165813436Y-78037877D01*
X165649017Y-78187765D01*
X165514945Y-78365306D01*
X165514943Y-78365309D01*
X165514942Y-78365311D01*
X165473457Y-78448623D01*
X165415770Y-78564473D01*
X165354885Y-78778463D01*
X165354884Y-78778464D01*
X165334357Y-78999999D01*
X165334357Y-79000000D01*
X165354884Y-79221535D01*
X165354885Y-79221536D01*
X165415771Y-79435528D01*
X165514942Y-79634689D01*
X165514944Y-79634692D01*
X165514945Y-79634693D01*
X165601659Y-79749522D01*
X165649019Y-79812236D01*
X165813438Y-79962124D01*
X166002599Y-80079247D01*
X166210060Y-80159618D01*
X166227382Y-80162856D01*
X166286535Y-80195091D01*
X166315442Y-80255939D01*
X166303064Y-80322158D01*
X166254127Y-80368454D01*
X166227382Y-80377144D01*
X166210063Y-80380381D01*
X166210050Y-80380385D01*
X166002607Y-80460749D01*
X166002595Y-80460755D01*
X165813440Y-80577874D01*
X165813436Y-80577877D01*
X165649017Y-80727765D01*
X165514945Y-80905306D01*
X165514943Y-80905309D01*
X165514942Y-80905311D01*
X165473457Y-80988623D01*
X165415770Y-81104473D01*
X165354885Y-81318463D01*
X165354884Y-81318464D01*
X165334357Y-81539999D01*
X165334357Y-81540000D01*
X165354884Y-81761535D01*
X165354885Y-81761536D01*
X165408507Y-81950000D01*
X165415771Y-81975528D01*
X165514942Y-82174689D01*
X165514944Y-82174692D01*
X165514945Y-82174693D01*
X165641632Y-82342455D01*
X165649019Y-82352236D01*
X165813438Y-82502124D01*
X166002599Y-82619247D01*
X166210060Y-82699618D01*
X166227382Y-82702856D01*
X166286535Y-82735091D01*
X166315442Y-82795939D01*
X166303064Y-82862158D01*
X166254127Y-82908454D01*
X166227382Y-82917144D01*
X166210063Y-82920381D01*
X166210050Y-82920385D01*
X166002607Y-83000749D01*
X166002595Y-83000755D01*
X165813440Y-83117874D01*
X165813436Y-83117877D01*
X165649017Y-83267765D01*
X165514945Y-83445306D01*
X165514943Y-83445309D01*
X165514942Y-83445311D01*
X165488836Y-83497739D01*
X165415770Y-83644473D01*
X165354885Y-83858463D01*
X165354884Y-83858464D01*
X165334357Y-84079999D01*
X165334357Y-84080000D01*
X165354884Y-84301535D01*
X165354885Y-84301536D01*
X165415198Y-84513516D01*
X165415771Y-84515528D01*
X165514942Y-84714689D01*
X165514944Y-84714692D01*
X165514945Y-84714693D01*
X165595031Y-84820745D01*
X165649019Y-84892236D01*
X165813438Y-85042124D01*
X166002599Y-85159247D01*
X166210060Y-85239618D01*
X166227382Y-85242856D01*
X166286535Y-85275091D01*
X166315442Y-85335939D01*
X166303064Y-85402158D01*
X166254127Y-85448454D01*
X166227382Y-85457144D01*
X166210063Y-85460381D01*
X166210050Y-85460385D01*
X166002607Y-85540749D01*
X166002595Y-85540755D01*
X165813440Y-85657874D01*
X165813436Y-85657877D01*
X165649017Y-85807765D01*
X165514945Y-85985306D01*
X165514943Y-85985309D01*
X165514942Y-85985311D01*
X165464954Y-86085698D01*
X165415770Y-86184473D01*
X165354885Y-86398463D01*
X165354884Y-86398464D01*
X165334357Y-86619999D01*
X165334357Y-86620000D01*
X165354884Y-86841535D01*
X165354885Y-86841536D01*
X165407309Y-87025790D01*
X165415771Y-87055528D01*
X165514942Y-87254689D01*
X165649019Y-87432236D01*
X165813438Y-87582124D01*
X166002599Y-87699247D01*
X166210060Y-87779618D01*
X166428757Y-87820500D01*
X166428758Y-87820500D01*
X166651242Y-87820500D01*
X166651243Y-87820500D01*
X166869940Y-87779618D01*
X167077401Y-87699247D01*
X167266562Y-87582124D01*
X167430981Y-87432236D01*
X167553516Y-87269972D01*
X167608738Y-87231390D01*
X167676092Y-87232635D01*
X167729852Y-87273232D01*
X167749500Y-87335660D01*
X167749500Y-87997322D01*
X167749237Y-88002667D01*
X167736151Y-88135538D01*
X167731982Y-88156495D01*
X167695565Y-88276545D01*
X167687388Y-88296287D01*
X167628246Y-88406932D01*
X167616376Y-88424697D01*
X167536788Y-88521677D01*
X167521677Y-88536788D01*
X167424697Y-88616376D01*
X167406932Y-88628246D01*
X167296287Y-88687388D01*
X167276545Y-88695565D01*
X167156495Y-88731982D01*
X167135538Y-88736151D01*
X167002668Y-88749237D01*
X166997323Y-88749500D01*
X151002677Y-88749500D01*
X150997332Y-88749237D01*
X150864461Y-88736151D01*
X150843505Y-88731982D01*
X150723453Y-88695564D01*
X150703712Y-88687388D01*
X150593067Y-88628246D01*
X150575302Y-88616376D01*
X150478322Y-88536788D01*
X150463211Y-88521677D01*
X150383623Y-88424697D01*
X150371753Y-88406932D01*
X150312608Y-88296280D01*
X150304436Y-88276552D01*
X150268015Y-88156486D01*
X150263849Y-88135545D01*
X150250763Y-88002666D01*
X150250500Y-87997322D01*
X150250500Y-87534588D01*
X150271317Y-87470519D01*
X150325817Y-87430923D01*
X150393183Y-87430923D01*
X150432931Y-87454035D01*
X150573438Y-87582124D01*
X150762599Y-87699247D01*
X150970060Y-87779618D01*
X151188757Y-87820500D01*
X151188758Y-87820500D01*
X151411242Y-87820500D01*
X151411243Y-87820500D01*
X151629940Y-87779618D01*
X151837401Y-87699247D01*
X152026562Y-87582124D01*
X152190981Y-87432236D01*
X152325058Y-87254689D01*
X152424229Y-87055528D01*
X152485115Y-86841536D01*
X152505643Y-86620000D01*
X152485115Y-86398464D01*
X152424229Y-86184472D01*
X152325058Y-85985311D01*
X152260969Y-85900444D01*
X152190982Y-85807765D01*
X152026563Y-85657877D01*
X152026559Y-85657874D01*
X151931981Y-85599314D01*
X151837401Y-85540753D01*
X151837396Y-85540751D01*
X151837392Y-85540749D01*
X151629949Y-85460385D01*
X151629944Y-85460383D01*
X151629940Y-85460382D01*
X151612617Y-85457143D01*
X151553465Y-85424909D01*
X151524557Y-85364061D01*
X151536935Y-85297843D01*
X151585871Y-85251546D01*
X151612618Y-85242856D01*
X151629940Y-85239618D01*
X151837401Y-85159247D01*
X152026562Y-85042124D01*
X152190981Y-84892236D01*
X152325058Y-84714689D01*
X152424229Y-84515528D01*
X152485115Y-84301536D01*
X152505643Y-84080000D01*
X152485115Y-83858464D01*
X152424229Y-83644472D01*
X152325058Y-83445311D01*
X152219416Y-83305418D01*
X152190982Y-83267765D01*
X152051247Y-83140379D01*
X152026562Y-83117876D01*
X151837401Y-83000753D01*
X151837396Y-83000751D01*
X151837392Y-83000749D01*
X151629949Y-82920385D01*
X151629944Y-82920383D01*
X151629940Y-82920382D01*
X151612617Y-82917143D01*
X151553465Y-82884909D01*
X151524557Y-82824061D01*
X151536935Y-82757843D01*
X151585871Y-82711546D01*
X151612618Y-82702856D01*
X151629940Y-82699618D01*
X151837401Y-82619247D01*
X152026562Y-82502124D01*
X152190981Y-82352236D01*
X152325058Y-82174689D01*
X152424229Y-81975528D01*
X152485115Y-81761536D01*
X152505643Y-81540000D01*
X152500011Y-81479225D01*
X152485115Y-81318464D01*
X152430746Y-81127378D01*
X152433235Y-81060059D01*
X152474819Y-81007059D01*
X152539613Y-80988623D01*
X152602868Y-81011794D01*
X152612660Y-81020474D01*
X152999757Y-81407571D01*
X153014376Y-81425712D01*
X153017857Y-81431128D01*
X153057261Y-81465271D01*
X153060099Y-81467914D01*
X153071411Y-81479225D01*
X153084194Y-81488792D01*
X153087220Y-81491231D01*
X153126627Y-81525377D01*
X153132476Y-81528048D01*
X153152520Y-81539940D01*
X153157669Y-81543795D01*
X153206532Y-81562020D01*
X153210094Y-81563495D01*
X153257543Y-81585165D01*
X153263905Y-81586080D01*
X153286494Y-81591845D01*
X153291445Y-81593691D01*
X153292517Y-81594091D01*
X153344532Y-81597810D01*
X153348380Y-81598225D01*
X153352927Y-81598878D01*
X153364201Y-81600500D01*
X153380186Y-81600500D01*
X153384070Y-81600638D01*
X153436073Y-81604358D01*
X153436073Y-81604357D01*
X153436074Y-81604358D01*
X153442359Y-81602991D01*
X153465527Y-81600500D01*
X154692227Y-81600500D01*
X154756296Y-81621317D01*
X154795892Y-81675817D01*
X154800390Y-81696018D01*
X154805526Y-81737229D01*
X154805527Y-81737234D01*
X154811898Y-81751757D01*
X154818569Y-81818792D01*
X154815175Y-81830923D01*
X154813907Y-81834615D01*
X154794654Y-81949999D01*
X154794654Y-82521890D01*
X154809047Y-82622000D01*
X154849555Y-82759957D01*
X154891568Y-82851955D01*
X154891569Y-82851957D01*
X154969301Y-82972911D01*
X154969309Y-82972921D01*
X155035527Y-83049339D01*
X155035532Y-83049344D01*
X155035539Y-83049352D01*
X155144200Y-83143506D01*
X155229283Y-83198186D01*
X155229289Y-83198189D01*
X155229296Y-83198193D01*
X155275638Y-83219356D01*
X155335780Y-83246821D01*
X155385411Y-83292371D01*
X155399500Y-83345971D01*
X155399500Y-84334469D01*
X155397009Y-84357637D01*
X155395641Y-84363927D01*
X155396089Y-84370184D01*
X155399361Y-84415934D01*
X155399500Y-84419823D01*
X155399500Y-84435795D01*
X155399501Y-84435810D01*
X155401773Y-84451615D01*
X155402188Y-84455481D01*
X155405908Y-84507478D01*
X155405909Y-84507484D01*
X155408159Y-84513516D01*
X155413918Y-84536084D01*
X155414833Y-84542453D01*
X155414834Y-84542454D01*
X155436495Y-84589887D01*
X155437983Y-84593481D01*
X155456203Y-84642330D01*
X155460063Y-84647486D01*
X155471948Y-84667517D01*
X155474623Y-84673373D01*
X155490235Y-84691390D01*
X155508765Y-84712776D01*
X155511206Y-84715805D01*
X155520779Y-84728593D01*
X155525418Y-84733232D01*
X155532078Y-84739893D01*
X155534728Y-84742739D01*
X155568869Y-84782141D01*
X155568871Y-84782142D01*
X155568872Y-84782143D01*
X155574285Y-84785622D01*
X155592428Y-84800242D01*
X157399757Y-86607571D01*
X157414376Y-86625712D01*
X157417857Y-86631128D01*
X157457262Y-86665272D01*
X157460099Y-86667914D01*
X157471407Y-86679221D01*
X157484193Y-86688792D01*
X157487224Y-86691234D01*
X157526627Y-86725377D01*
X157532474Y-86728047D01*
X157552514Y-86739937D01*
X157557669Y-86743796D01*
X157606533Y-86762020D01*
X157610114Y-86763505D01*
X157627219Y-86771316D01*
X157657543Y-86785165D01*
X157663910Y-86786080D01*
X157686489Y-86791842D01*
X157692517Y-86794091D01*
X157727573Y-86796598D01*
X157744516Y-86797810D01*
X157748386Y-86798226D01*
X157757490Y-86799534D01*
X157764201Y-86800500D01*
X157780177Y-86800500D01*
X157784062Y-86800638D01*
X157836073Y-86804359D01*
X157841640Y-86803147D01*
X157842362Y-86802991D01*
X157865531Y-86800500D01*
X160223273Y-86800500D01*
X160287342Y-86821317D01*
X160300341Y-86832419D01*
X160397738Y-86929816D01*
X160550478Y-87025789D01*
X160550480Y-87025790D01*
X160550483Y-87025791D01*
X160720737Y-87085366D01*
X160720742Y-87085367D01*
X160720745Y-87085368D01*
X160900000Y-87105565D01*
X161079255Y-87085368D01*
X161079259Y-87085366D01*
X161079262Y-87085366D01*
X161249516Y-87025791D01*
X161249519Y-87025790D01*
X161249518Y-87025790D01*
X161249522Y-87025789D01*
X161402262Y-86929816D01*
X161529816Y-86802262D01*
X161625789Y-86649522D01*
X161685368Y-86479255D01*
X161705565Y-86300000D01*
X161685368Y-86120745D01*
X161685367Y-86120742D01*
X161685366Y-86120737D01*
X161625791Y-85950483D01*
X161625790Y-85950480D01*
X161596798Y-85904339D01*
X161529816Y-85797738D01*
X161418650Y-85686572D01*
X161388069Y-85626551D01*
X161398607Y-85560015D01*
X161446242Y-85512380D01*
X161495727Y-85500500D01*
X161623273Y-85500500D01*
X161687342Y-85521317D01*
X161700341Y-85532419D01*
X161797738Y-85629816D01*
X161918047Y-85705411D01*
X161950480Y-85725790D01*
X161950483Y-85725791D01*
X162120737Y-85785366D01*
X162120742Y-85785367D01*
X162120745Y-85785368D01*
X162300000Y-85805565D01*
X162479255Y-85785368D01*
X162479259Y-85785366D01*
X162479262Y-85785366D01*
X162649516Y-85725791D01*
X162649519Y-85725790D01*
X162649518Y-85725790D01*
X162649522Y-85725789D01*
X162802262Y-85629816D01*
X162929816Y-85502262D01*
X163025789Y-85349522D01*
X163051834Y-85275091D01*
X163085366Y-85179262D01*
X163085367Y-85179257D01*
X163085368Y-85179255D01*
X163105565Y-85000000D01*
X163097313Y-84926766D01*
X163110826Y-84860773D01*
X163160550Y-84815323D01*
X163194120Y-84808056D01*
X163193917Y-84806250D01*
X163199998Y-84805564D01*
X163200000Y-84805565D01*
X163379255Y-84785368D01*
X163379259Y-84785366D01*
X163379262Y-84785366D01*
X163537565Y-84729973D01*
X163549522Y-84725789D01*
X163702262Y-84629816D01*
X163829816Y-84502262D01*
X163925789Y-84349522D01*
X163942580Y-84301535D01*
X163985366Y-84179262D01*
X163985367Y-84179257D01*
X163985368Y-84179255D01*
X164005565Y-84000000D01*
X163985368Y-83820745D01*
X163985367Y-83820742D01*
X163985366Y-83820737D01*
X163925791Y-83650483D01*
X163925790Y-83650480D01*
X163922015Y-83644472D01*
X163829816Y-83497738D01*
X163702262Y-83370184D01*
X163596769Y-83303898D01*
X163549519Y-83274209D01*
X163549516Y-83274208D01*
X163379262Y-83214633D01*
X163379257Y-83214632D01*
X163200000Y-83194435D01*
X163020742Y-83214632D01*
X163020737Y-83214633D01*
X162850483Y-83274208D01*
X162850480Y-83274209D01*
X162697739Y-83370183D01*
X162697738Y-83370183D01*
X162697738Y-83370184D01*
X162600345Y-83467576D01*
X162540324Y-83498158D01*
X162523273Y-83499500D01*
X159631409Y-83499500D01*
X159567340Y-83478683D01*
X159527744Y-83424183D01*
X159527744Y-83356817D01*
X159557585Y-83310306D01*
X159577067Y-83292371D01*
X159630418Y-83243258D01*
X159686092Y-83140381D01*
X159691304Y-83109144D01*
X159722380Y-83049379D01*
X159775651Y-83020576D01*
X159782470Y-83019091D01*
X159782483Y-83019091D01*
X159788509Y-83016843D01*
X159811090Y-83011080D01*
X159817457Y-83010165D01*
X159864911Y-82988492D01*
X159868455Y-82987024D01*
X159917331Y-82968796D01*
X159922479Y-82964942D01*
X159942519Y-82953050D01*
X159948373Y-82950377D01*
X159987788Y-82916222D01*
X159990772Y-82913817D01*
X160003593Y-82904221D01*
X160014896Y-82892916D01*
X160017738Y-82890271D01*
X160057143Y-82856128D01*
X160060621Y-82850714D01*
X160075238Y-82832574D01*
X160307574Y-82600238D01*
X160325714Y-82585621D01*
X160331128Y-82582143D01*
X160365271Y-82542737D01*
X160367917Y-82539896D01*
X160379220Y-82528594D01*
X160388817Y-82515771D01*
X160391219Y-82512792D01*
X160425377Y-82473373D01*
X160428047Y-82467524D01*
X160439942Y-82447476D01*
X160443795Y-82442331D01*
X160462022Y-82393459D01*
X160463488Y-82389921D01*
X160485165Y-82342457D01*
X160486080Y-82336088D01*
X160491844Y-82313506D01*
X160494091Y-82307483D01*
X160497811Y-82255447D01*
X160498221Y-82251645D01*
X160500500Y-82235799D01*
X160500500Y-82219812D01*
X160500639Y-82215923D01*
X160504358Y-82163927D01*
X160502991Y-82157641D01*
X160500500Y-82134473D01*
X160500500Y-80465530D01*
X160502990Y-80442363D01*
X160504359Y-80436073D01*
X160500638Y-80384061D01*
X160500500Y-80380176D01*
X160500500Y-80364206D01*
X160500499Y-80364195D01*
X160498226Y-80348386D01*
X160497810Y-80344516D01*
X160494091Y-80292520D01*
X160494091Y-80292517D01*
X160491842Y-80286489D01*
X160486080Y-80263910D01*
X160485165Y-80257543D01*
X160473355Y-80231683D01*
X160463505Y-80210114D01*
X160462020Y-80206533D01*
X160443796Y-80157669D01*
X160439937Y-80152514D01*
X160428046Y-80132472D01*
X160425377Y-80126627D01*
X160391235Y-80087225D01*
X160388792Y-80084193D01*
X160385087Y-80079244D01*
X160379221Y-80071407D01*
X160367914Y-80060099D01*
X160365272Y-80057262D01*
X160331128Y-80017857D01*
X160325712Y-80014376D01*
X160307571Y-79999757D01*
X159832783Y-79524969D01*
X159802200Y-79464945D01*
X159801543Y-79435693D01*
X159805565Y-79400000D01*
X159785368Y-79220745D01*
X159785367Y-79220742D01*
X159785366Y-79220737D01*
X159725791Y-79050483D01*
X159725790Y-79050480D01*
X159725789Y-79050478D01*
X159629816Y-78897738D01*
X159502262Y-78770184D01*
X159349522Y-78674211D01*
X159349519Y-78674209D01*
X159349516Y-78674208D01*
X159179262Y-78614633D01*
X159179257Y-78614632D01*
X159000000Y-78594435D01*
X158820742Y-78614632D01*
X158820737Y-78614633D01*
X158650483Y-78674208D01*
X158650480Y-78674209D01*
X158497739Y-78770183D01*
X158370183Y-78897739D01*
X158274209Y-79050480D01*
X158274208Y-79050483D01*
X158214633Y-79220737D01*
X158214632Y-79220742D01*
X158194435Y-79400000D01*
X158214632Y-79579257D01*
X158214633Y-79579262D01*
X158274208Y-79749516D01*
X158274209Y-79749519D01*
X158274211Y-79749522D01*
X158370184Y-79902262D01*
X158497738Y-80029816D01*
X158497740Y-80029817D01*
X158501502Y-80033579D01*
X158532085Y-80093603D01*
X158521547Y-80160139D01*
X158473912Y-80207774D01*
X158424427Y-80219654D01*
X158272618Y-80219654D01*
X158208549Y-80198837D01*
X158195543Y-80187729D01*
X157700242Y-79692428D01*
X157685620Y-79674283D01*
X157682141Y-79668869D01*
X157642739Y-79634728D01*
X157639893Y-79632078D01*
X157634241Y-79626427D01*
X157628593Y-79620779D01*
X157615805Y-79611206D01*
X157612776Y-79608765D01*
X157593379Y-79591958D01*
X157573373Y-79574623D01*
X157573371Y-79574622D01*
X157567517Y-79571948D01*
X157547486Y-79560063D01*
X157542331Y-79556204D01*
X157542329Y-79556203D01*
X157542330Y-79556203D01*
X157493481Y-79537983D01*
X157489887Y-79536495D01*
X157462698Y-79524078D01*
X157442457Y-79514835D01*
X157442455Y-79514834D01*
X157442454Y-79514834D01*
X157442453Y-79514833D01*
X157436084Y-79513918D01*
X157413516Y-79508159D01*
X157407484Y-79505909D01*
X157407478Y-79505908D01*
X157355481Y-79502188D01*
X157351615Y-79501773D01*
X157335810Y-79499501D01*
X157335801Y-79499500D01*
X157335799Y-79499500D01*
X157335796Y-79499500D01*
X157319823Y-79499500D01*
X157315937Y-79499361D01*
X157263927Y-79495641D01*
X157263926Y-79495641D01*
X157257638Y-79497009D01*
X157234469Y-79499500D01*
X155092464Y-79499500D01*
X155028395Y-79478683D01*
X155015389Y-79467575D01*
X152473756Y-76925942D01*
X152443173Y-76865918D01*
X152445992Y-76819037D01*
X152485115Y-76681535D01*
X152505643Y-76460000D01*
X152505643Y-76459999D01*
X152485115Y-76238464D01*
X152424229Y-76024472D01*
X152325058Y-75825311D01*
X152260969Y-75740444D01*
X152190982Y-75647765D01*
X152026563Y-75497877D01*
X152026559Y-75497874D01*
X151837404Y-75380755D01*
X151837405Y-75380755D01*
X151837401Y-75380753D01*
X151837396Y-75380751D01*
X151837392Y-75380749D01*
X151629949Y-75300385D01*
X151629944Y-75300383D01*
X151629940Y-75300382D01*
X151612617Y-75297143D01*
X151553465Y-75264909D01*
X151524557Y-75204061D01*
X151536935Y-75137843D01*
X151585871Y-75091546D01*
X151612618Y-75082856D01*
X151629940Y-75079618D01*
X151837401Y-74999247D01*
X152026562Y-74882124D01*
X152190981Y-74732236D01*
X152325058Y-74554689D01*
X152424229Y-74355528D01*
X152485115Y-74141536D01*
X152505643Y-73920000D01*
X152485115Y-73698464D01*
X152424229Y-73484472D01*
X152325058Y-73285311D01*
X152260969Y-73200444D01*
X152190982Y-73107765D01*
X152026563Y-72957877D01*
X152026559Y-72957874D01*
X151837404Y-72840755D01*
X151837405Y-72840755D01*
X151837401Y-72840753D01*
X151837396Y-72840751D01*
X151837392Y-72840749D01*
X151709334Y-72791139D01*
X151657111Y-72748584D01*
X151639876Y-72683460D01*
X151664212Y-72620643D01*
X151720822Y-72584128D01*
X151748709Y-72580500D01*
X152183262Y-72580500D01*
X152183262Y-72580499D01*
X152251393Y-72570573D01*
X152356483Y-72519198D01*
X152439198Y-72436483D01*
X152490573Y-72331393D01*
X152500500Y-72263260D01*
X152500500Y-70496740D01*
X152490573Y-70428607D01*
X152439198Y-70323517D01*
X152356483Y-70240802D01*
X152356481Y-70240801D01*
X152356482Y-70240801D01*
X152251391Y-70189426D01*
X152183262Y-70179500D01*
X152183260Y-70179500D01*
X150416740Y-70179500D01*
X150416732Y-70179500D01*
X150375213Y-70185549D01*
X150308813Y-70174186D01*
X150261773Y-70125963D01*
X150250500Y-70077688D01*
X150250500Y-70002677D01*
X150250763Y-69997333D01*
X150254157Y-69962868D01*
X150263849Y-69864452D01*
X150268014Y-69843515D01*
X150304438Y-69723444D01*
X150312606Y-69703722D01*
X150371756Y-69593061D01*
X150383619Y-69575307D01*
X150463218Y-69478314D01*
X150478314Y-69463218D01*
X150575307Y-69383619D01*
X150593061Y-69371756D01*
X150703722Y-69312606D01*
X150723444Y-69304438D01*
X150843515Y-69268014D01*
X150864452Y-69263849D01*
X150962868Y-69254157D01*
X150997333Y-69250763D01*
X151002677Y-69250500D01*
X151044170Y-69250500D01*
X166955830Y-69250500D01*
X166997323Y-69250500D01*
X167002667Y-69250763D01*
G37*
%TD.AperFunction*%
%TD*%
M02*
