M48
; DRILL file {KiCad 7.0.9} date Sat Feb 17 11:22:33 2024
; FORMAT={-:-/ absolute / inch / decimal}
; #@! TF.CreationDate,2024-02-17T11:22:33-05:00
; #@! TF.GenerationSoftware,Kicad,Pcbnew,7.0.9
; #@! TF.FileFunction,Plated,1,2,PTH
FMAT,2
INCH
; #@! TA.AperFunction,Plated,PTH,ViaDrill
T1C0.0138
; #@! TA.AperFunction,Plated,PTH,ViaDrill
T2C0.0157
; #@! TA.AperFunction,Plated,PTH,ComponentDrill
T3C0.0394
%
G90
G05
T1
X5.937Y-3.4724
X5.9803Y-3.4724
X6.0118Y-2.748
X6.5315Y-3.4724
X6.5748Y-3.4724
T2
X6.0276Y-3.3661
X6.0315Y-3.2953
X6.0354Y-2.9961
X6.0472Y-3.2362
X6.0945Y-3.3268
X6.1024Y-3.0945
X6.1583Y-3.3968
X6.1614Y-3.0945
X6.189Y-2.8031
X6.2165Y-3.3465
X6.252Y-3.3071
X6.2598Y-3.126
X6.3346Y-3.3976
X6.3386Y-3.2126
X6.3661Y-3.0906
X6.3898Y-3.3465
X6.3898Y-3.3976
X6.4173Y-3.1299
X6.4213Y-3.063
X6.4252Y-3.3071
X6.4291Y-3.0
X6.4646Y-3.3858
X6.4764Y-3.0
X6.4843Y-2.7598
X6.4843Y-2.811
T3
X5.9567Y-2.8102
X5.9567Y-2.9102
X5.9567Y-3.0102
X5.9567Y-3.1102
X5.9567Y-3.2102
X5.9567Y-3.3102
X5.9567Y-3.4102
X6.5567Y-2.8102
X6.5567Y-2.9102
X6.5567Y-3.0102
X6.5567Y-3.1102
X6.5567Y-3.2102
X6.5567Y-3.3102
X6.5567Y-3.4102
T0
M30
